<svg fill="none" height="54" width="48" xmlns="http://www.w3.org/2000/svg" xmlns:xlink="http://www.w3.org/1999/xlink"><filter id="a" color-interpolation-filters="sRGB" filterUnits="userSpaceOnUse" height="53.429" width="48" x="0" y="0"><feFlood flood-opacity="0" result="BackgroundImageFix"/><feColorMatrix in="SourceAlpha" values="0 0 0 0 0 0 0 0 0 0 0 0 0 0 0 0 0 0 127 0"/><feOffset dy="4"/><feGaussianBlur stdDeviation="5"/><feColorMatrix values="0 0 0 0 0.254902 0 0 0 0 0.254902 0 0 0 0 0.254902 0 0 0 0.49 0"/><feBlend in2="BackgroundImageFix" result="effect1_dropShadow"/><feBlend in="SourceGraphic" in2="effect1_dropShadow" result="shape"/></filter><g filter="url(#a)"><path clip-rule="evenodd" d="m25.391 38.736c-.378.364-.84.693-1.391.693-.552 0-1.024-.313-1.391-.693-3.193-3.304-12.609-10.328-12.609-19.145 0-7.506 6.268-13.591 14-13.591s14 6.085 14 13.591c0 8.817-9.169 15.841-12.609 19.145z" fill="#fff" fill-rule="evenodd"/></g><path clip-rule="evenodd" d="m24 31.768c6.572 0 11.9-5.3 11.9-11.84 0-6.538-5.328-11.838-11.9-11.838s-11.9 5.3-11.9 11.84c0 6.538 5.328 11.839 11.9 11.839z" fill="#ff5a64" fill-rule="evenodd"/></svg>